<svg width="95" height="95" viewBox="0 0 95 95" fill="none" xmlns="http://www.w3.org/2000/svg">
<circle cx="50.5" cy="50.5" r="44.5" fill="#E7F3FF"/>
<circle cx="44.5" cy="44.5" r="43.5" stroke="#023247" stroke-width="2"/>
<path d="M59 27H44.5M30 62H44.5M44.5 17V27M44.5 27H34.2748C31.6042 27 29.1102 28.3347 27.6287 30.5569V30.5569C25.4314 33.853 25.4314 38.147 27.6287 41.4431V41.4431C29.1102 43.6653 31.6042 45 34.2748 45H55.3115C57.6363 45 59.8284 46.0833 61.2406 47.93V47.93C63.7548 51.2178 63.7548 55.7822 61.2406 59.07V59.07C59.8284 60.9167 57.6363 62 55.3115 62H44.5M44.5 62V72" stroke="#023247" stroke-width="2"/>
</svg>
