<svg width="95" height="95" viewBox="0 0 95 95" fill="none" xmlns="http://www.w3.org/2000/svg">
<circle cx="50.5" cy="50.5" r="44.5" fill="#E7F3FF"/>
<path d="M60 33C60 41.2843 53.2843 48 45 48C36.7157 48 30 41.2843 30 33C30 24.7157 36.7157 18 45 18C53.2843 18 60 24.7157 60 33ZM31.8 33C31.8 40.2902 37.7098 46.2 45 46.2C52.2902 46.2 58.2 40.2902 58.2 33C58.2 25.7098 52.2902 19.8 45 19.8C37.7098 19.8 31.8 25.7098 31.8 33Z" fill="#023247"/>
<path d="M65 71.5C65 66.0631 62.8402 60.8488 58.9957 57.0043C55.1512 53.1598 49.9369 51 44.5 51C39.0631 51 33.8488 53.1598 30.0043 57.0043C26.1598 60.8488 24 66.0631 24 71.5L25.845 71.5C25.845 66.5524 27.8104 61.8074 31.3089 58.3089C34.8074 54.8104 39.5524 52.845 44.5 52.845C49.4476 52.845 54.1926 54.8104 57.6911 58.3089C61.1896 61.8074 63.155 66.5524 63.155 71.5H65Z" fill="#023247"/>
<circle cx="44.5" cy="44.5" r="43.5" stroke="#023247" stroke-width="2"/>
</svg>
