<svg width="115" height="29" viewBox="0 0 115 29" fill="none" xmlns="http://www.w3.org/2000/svg">
<g clip-path="url(#clip0_1_4096)">
<path d="M0 28.7054H9.33745L23.3417 9.71899H14.0043L0 28.7054Z" fill="#00C3FF"/>
<path d="M31.4523 0.229614H23.3418V28.7054H31.4523V0.229614Z" fill="#00C3FF"/>
<path d="M42.2463 3.26391C41.6243 3.10099 40.9843 3.01997 40.3419 3.02285C40.0528 3.00538 39.7635 3.05375 39.4951 3.16443C39.4091 3.20591 39.3371 3.2724 39.2882 3.35549C39.2393 3.43858 39.2157 3.53454 39.2204 3.63124C39.2275 3.74788 39.2665 3.86019 39.333 3.95551C39.3995 4.05083 39.4908 4.12538 39.5967 4.17076C40.0329 4.38878 40.4909 4.55813 40.9629 4.67584C42.2915 5.05848 43.2512 5.50999 43.8496 6.0495C44.1514 6.33673 44.3877 6.6877 44.5418 7.07772C44.6959 7.46775 44.7641 7.88737 44.7416 8.30706C44.7732 8.81671 44.6723 9.32585 44.449 9.78328C44.2257 10.2407 43.8879 10.6303 43.4695 10.9128C42.5233 11.5054 41.4262 11.8009 40.3156 11.7623C39.5028 11.7697 38.6915 11.6889 37.8956 11.5212C37.2567 11.3925 36.6394 11.1709 36.0627 10.8631L36.2359 7.69867C36.8422 8.00394 37.4715 8.25983 38.1177 8.46394C38.816 8.69898 39.5461 8.82163 40.2817 8.82744C41.2 8.82744 41.6592 8.60551 41.6592 8.16931C41.6504 8.03972 41.6053 7.91539 41.5293 7.81098C41.4533 7.70657 41.3495 7.62645 41.2301 7.58005C40.7687 7.35944 40.2872 7.18515 39.7925 7.05966C38.4978 6.73825 37.5682 6.29822 37.0036 5.73957C36.7157 5.44236 36.4917 5.08749 36.3459 4.69751C36.2001 4.30754 36.1357 3.891 36.1568 3.47436C36.1296 2.98073 36.2214 2.48782 36.424 2.03839C36.6267 1.58897 36.9342 1.19662 37.3198 0.895395C38.0926 0.298482 39.1426 2.61012e-05 40.4699 2.61012e-05C41.6899 -0.04534 42.9033 0.202426 44.0114 0.723209L43.8044 3.88761C43.3152 3.60902 42.791 3.3992 42.2463 3.26391Z" fill="white"/>
<path d="M55.5655 0.256348V11.5059H52.5547V7.27007H49.0282V11.4791H46.0173V0.256348H49.0282V4.53039H52.5547V0.256348H55.5655Z" fill="white"/>
<path d="M60.3226 0.256348V11.5059H57.3118V0.256348H60.3226Z" fill="white"/>
<path d="M62.0766 0.256348H69.9011V3.11847H65.08V5.17322H68.7494V7.74454H65.08V11.5059H62.0691L62.0766 0.256348Z" fill="white"/>
<path d="M73.8677 3.00368H70.9773V0.256348H79.8104V3.00368H76.8711V11.5059H73.8602L73.8677 3.00368Z" fill="white"/>
<path d="M38.3509 17.475H43.9624L46.6986 28.7245H43.5183L43.0629 26.5894H39.2692L38.8101 28.7245H35.6487L38.3509 17.475ZM42.5887 24.2744L41.1962 17.716H41.1473L39.7585 24.2744H42.5887Z" fill="white"/>
<path d="M50.8084 25.277C51.0538 25.5395 51.3529 25.7441 51.6846 25.8763C52.0162 26.0086 52.3724 26.0652 52.7279 26.0423C53.2113 26.0351 53.6909 25.9538 54.1505 25.8012C54.6542 25.642 55.137 25.421 55.5882 25.1431L55.7764 28.2922C55.3189 28.5123 54.8394 28.6816 54.3462 28.7972C53.8534 28.9198 53.3481 28.9827 52.8408 28.9847C51.7561 29.0298 50.6774 28.7997 49.7019 28.3151C48.8512 27.8646 48.1584 27.1576 47.7185 26.291C47.2368 25.3056 47.0003 24.2151 47.0298 23.1151C47.0009 22.0238 47.2375 20.942 47.7185 19.966C48.1597 19.1022 48.8523 18.398 49.7019 17.9495C51.1451 17.2471 52.7807 17.0663 54.3387 17.4368C54.835 17.5485 55.3155 17.7234 55.7688 17.9571L55.5807 21.0909C55.1276 20.8116 54.6421 20.5905 54.1354 20.4328C53.6782 20.2811 53.2012 20.1998 52.7203 20.1917C52.365 20.1701 52.0092 20.2273 51.6777 20.3595C51.3463 20.4916 51.0471 20.6955 50.8009 20.957C50.3115 21.5607 50.0654 22.3305 50.1122 23.1113C50.0688 23.8964 50.3173 24.6695 50.8084 25.277Z" fill="white"/>
<path d="M59.201 17.475H64.8125L67.5449 28.7245H64.3571L63.898 26.5894H60.1156L59.6602 28.7245H56.4988L59.201 17.475ZM63.4351 24.2744L62.0463 17.716H61.9974L60.5936 24.2744H63.4351Z" fill="white"/>
<path d="M76.0507 18.1523C76.8572 18.5915 77.5134 19.2693 77.9325 20.0961C78.3885 21.028 78.6133 22.0592 78.5874 23.0998C78.6133 24.1415 78.3885 25.174 77.9325 26.1073C77.5134 26.934 76.8572 27.6119 76.0507 28.0511C75.1462 28.5194 74.1411 28.7508 73.1264 28.7245H68.5913V17.475H73.1264C74.1416 17.448 75.1472 17.6809 76.0507 18.1523ZM73.0775 25.9772C73.413 25.9954 73.7482 25.9361 74.0579 25.8035C74.3675 25.6709 74.6436 25.4687 74.8652 25.2119C75.3255 24.6138 75.5557 23.8656 75.5125 23.1074C75.555 22.3493 75.3249 21.6013 74.8652 21.0029C74.6431 20.7468 74.3669 20.545 74.0574 20.4125C73.7479 20.28 73.4129 20.2202 73.0775 20.2376H71.5946V25.9772H73.0775Z" fill="white"/>
<path d="M88.0677 17.475V20.2223H83.0358V21.9097H86.7354V24.2897H83.0358V25.9772H88.222V28.7245H80.0325V17.475H88.0677Z" fill="white"/>
<path d="M92.554 18.841H92.475V28.7245H89.4641V17.475H94.7331L96.0278 28.4834H96.1068L97.4015 17.475H102.746V28.7245H99.7349V18.841H99.6521L98.3424 28.7245H93.8487L92.554 18.841Z" fill="white"/>
<path d="M109.231 24.6609H106.509L103.758 17.475H107.112L109.34 24.2094H109.385L111.643 17.475H114.996L110.744 28.7245H107.849L109.231 24.6609Z" fill="white"/>
</g>
<defs>
<clipPath id="clip0_1_4096">
<rect width="115" height="29" fill="white"/>
</clipPath>
</defs>
</svg>
