<svg width="123" height="31" viewBox="0 0 123 31" fill="none" xmlns="http://www.w3.org/2000/svg">
<g clip-path="url(#clip0_1_10)">
<path d="M0 30.685H9.98701L24.9655 10.3892H14.9785L0 30.685Z" fill="#00C3FF"/>
<path d="M33.6403 0.245361H24.9656V30.685H33.6403V0.245361Z" fill="#00C3FF"/>
<path d="M45.185 3.48901C44.5197 3.31485 43.8352 3.22824 43.1482 3.23132C42.8389 3.21265 42.5295 3.26435 42.2425 3.38266C42.1504 3.42701 42.0734 3.49808 42.0211 3.5869C41.9688 3.67572 41.9435 3.77829 41.9486 3.88167C41.9562 4.00635 41.9979 4.1264 42.069 4.2283C42.1401 4.33019 42.2378 4.40988 42.3511 4.4584C42.8176 4.69145 43.3075 4.87248 43.8124 4.99831C45.2333 5.40733 46.2598 5.88998 46.8998 6.46671C47.2227 6.77374 47.4754 7.14891 47.6402 7.56584C47.805 7.98276 47.8779 8.43132 47.8539 8.87995C47.8877 9.42475 47.7798 9.96901 47.541 10.458C47.3021 10.947 46.9408 11.3634 46.4933 11.6654C45.4813 12.2989 44.3079 12.6147 43.12 12.5734C42.2506 12.5814 41.3829 12.495 40.5317 12.3158C39.8483 12.1782 39.1881 11.9413 38.5713 11.6122L38.7565 8.22961C39.405 8.55593 40.078 8.82947 40.7692 9.04766C41.5161 9.29891 42.297 9.43001 43.0838 9.43623C44.066 9.43623 44.5571 9.19899 44.5571 8.73271C44.5476 8.59418 44.4994 8.46127 44.4181 8.34966C44.3368 8.23806 44.2258 8.1524 44.0982 8.10281C43.6046 7.86699 43.0896 7.68068 42.5605 7.54653C41.1757 7.20295 40.1814 6.73257 39.5776 6.1354C39.2696 5.81769 39.0301 5.43834 38.8741 5.02148C38.7182 4.60461 38.6494 4.15934 38.6719 3.71397C38.6428 3.1863 38.7409 2.65938 38.9577 2.17897C39.1745 1.69855 39.5033 1.27914 39.9158 0.957142C40.7423 0.319063 41.8654 2.36923e-05 43.285 2.36923e-05C44.5899 -0.0484711 45.8877 0.216382 47.0729 0.773081L46.8515 4.15572C46.3283 3.85791 45.7676 3.63363 45.185 3.48901V3.48901Z" fill="white"/>
<path d="M59.4309 0.273926V12.2993H56.2106V7.77135H52.4388V12.2706H49.2185V0.273926H52.4388V4.84273H56.2106V0.273926H59.4309Z" fill="white"/>
<path d="M64.5191 0.273926V12.2993H61.2988V0.273926H64.5191Z" fill="white"/>
<path d="M66.3948 0.273926H74.7636V3.33343H69.607V5.5299H73.5318V8.27854H69.607V12.2993H66.3867L66.3948 0.273926Z" fill="white"/>
<path d="M79.0065 3.21072H75.915V0.273926H85.3626V3.21072H82.2188V12.2993H78.9985L79.0065 3.21072Z" fill="white"/>
<path d="M41.0189 18.6802H47.0208L49.9472 30.7055H46.5458L46.0587 28.4231H42.0011L41.51 30.7055H38.1287L41.0189 18.6802ZM45.5515 25.9485L44.0621 18.9379H44.0098L42.5244 25.9485H45.5515Z" fill="white"/>
<path d="M54.343 27.0202C54.6054 27.3009 54.9253 27.5196 55.28 27.6609C55.6347 27.8023 56.0157 27.8628 56.3959 27.8383C56.913 27.8306 57.426 27.7438 57.9175 27.5806C58.4563 27.4104 58.9727 27.1741 59.4552 26.8771L59.6565 30.2433C59.1672 30.4786 58.6543 30.6597 58.1268 30.7832C57.5997 30.9142 57.0593 30.9815 56.5167 30.9837C55.3565 31.0319 54.2028 30.7859 53.1595 30.2679C52.2496 29.7863 51.5086 29.0305 51.0381 28.1041C50.5228 27.0508 50.2699 25.8851 50.3015 24.7092C50.2706 23.5426 50.5236 22.3863 51.0381 21.343C51.5099 20.4196 52.2508 19.6668 53.1595 19.1874C54.703 18.4366 56.4525 18.2433 58.1188 18.6393C58.6496 18.7588 59.1635 18.9457 59.6484 19.1956L59.4472 22.5455C58.9626 22.2468 58.4433 22.0105 57.9014 21.842C57.4124 21.6798 56.9022 21.5929 56.3879 21.5843C56.0078 21.5611 55.6272 21.6223 55.2727 21.7636C54.9182 21.9048 54.5982 22.1228 54.3349 22.4023C53.8115 23.0476 53.5483 23.8705 53.5983 24.7051C53.5518 25.5444 53.8177 26.3708 54.343 27.0202V27.0202Z" fill="white"/>
<path d="M63.3194 18.6802H69.3213L72.2437 30.7055H68.8342L68.3431 28.4231H64.2976L63.8105 30.7055H60.4292L63.3194 18.6802ZM67.848 25.9485L66.3626 18.9379H66.3103L64.8088 25.9485H67.848Z" fill="white"/>
<path d="M81.3411 19.4042C82.2037 19.8737 82.9055 20.5983 83.3538 21.482C83.8415 22.4783 84.0819 23.5806 84.0542 24.6929C84.0819 25.8065 83.8415 26.9101 83.3538 27.9078C82.9055 28.7916 82.2037 29.5162 81.3411 29.9857C80.3737 30.4863 79.2987 30.7337 78.2134 30.7056H73.3628V18.6802H78.2134C79.2992 18.6514 80.3747 18.9004 81.3411 19.4042V19.4042ZM78.1611 27.7688C78.5199 27.7883 78.8784 27.7248 79.2097 27.5831C79.5409 27.4414 79.8361 27.2252 80.0731 26.9507C80.5655 26.3113 80.8116 25.5116 80.7655 24.7011C80.8109 23.8907 80.5648 23.0911 80.0731 22.4514C79.8355 22.1777 79.5402 21.9619 79.2091 21.8203C78.8781 21.6787 78.5198 21.6148 78.1611 21.6334H76.5751V27.7688H78.1611Z" fill="white"/>
<path d="M94.1943 18.6802V21.617H88.8124V23.4208H92.7693V25.9649H88.8124V27.7687H94.3594V30.7055H85.6001V18.6802H94.1943Z" fill="white"/>
<path d="M98.9926 20.1404H98.9081V30.7055H95.6877V18.6802H101.323L102.708 30.4478H102.793L104.177 18.6802H109.893V30.7055H106.673V20.1404H106.584L105.184 30.7055H100.377L98.9926 20.1404Z" fill="white"/>
<path d="M116.829 26.3617H113.919L110.976 18.6802H114.563L116.946 25.879H116.994L119.409 18.6802H122.996L118.447 30.7055H115.352L116.829 26.3617Z" fill="white"/>
</g>
<defs>
<clipPath id="clip0_1_10">
<rect width="123" height="31" fill="white"/>
</clipPath>
</defs>
</svg>
