<svg width="81" height="62" viewBox="0 0 81 62" fill="none" xmlns="http://www.w3.org/2000/svg">
<g clip-path="url(#clip0_1_642)">
<path d="M15.0205 20.2332V2.42182C15.0205 1.67023 15.6209 1.07373 16.3507 1.07373H78.5986C79.3402 1.07373 79.9288 1.68216 79.9288 2.42182V50.6785C79.9288 51.4301 79.3285 52.0266 78.5986 52.0266H53.4311" fill="#023247"/>
<path d="M78.6103 53.1002H53.431V50.9529H78.6103C78.7634 50.9529 78.8811 50.8335 78.8811 50.6785V2.42178C78.8811 2.26669 78.7634 2.14739 78.6103 2.14739H16.3624C16.2093 2.14739 16.0916 2.26669 16.0916 2.42178V20.2213H13.9728V2.42178C13.961 1.08563 15.044 0 16.3624 0H78.6103C79.9287 0 81 1.08563 81 2.42178V50.6785C81 52.0146 79.9287 53.1002 78.6103 53.1002Z" fill="#00C3FF"/>
<path d="M22.3777 4.30676H24.2611V6.21556H22.3777V4.30676Z" fill="#00C3FF"/>
<path d="M26.1445 4.30676H28.028V6.21556H26.1445V4.30676Z" fill="#00C3FF"/>
<path d="M75.9734 47.3142H53.4309V45.2861H73.9723V33.9527H53.2661V31.9246H75.9734V47.3142Z" fill="#00C3FF"/>
<path d="M18.6108 4.30676H20.4943V6.21556H18.6108V4.30676Z" fill="#00C3FF"/>
<path d="M25.9092 14.2086H28.287V16.6185H25.9092V14.2086Z" fill="#00C3FF"/>
<path d="M30.6648 14.2086H75.8558V16.6185H30.6648V14.2086Z" fill="#00C3FF"/>
<path d="M57.4333 19.0283H75.8676V21.4382H57.4333V19.0283Z" fill="#00C3FF"/>
<path d="M57.4333 23.848H75.8676V26.2579H57.4333V23.848Z" fill="#00C3FF"/>
<path d="M52.1007 54.5558H2.38951C1.6479 54.5558 1.05933 53.9474 1.05933 53.2077V21.5933C1.05933 20.8417 1.65967 20.2452 2.38951 20.2452H52.1007C52.8424 20.2452 53.4309 20.8537 53.4309 21.5933V53.2077C53.4309 53.9474 52.8424 54.5558 52.1007 54.5558Z" fill="#023247"/>
<path d="M52.1009 55.6294H2.38962C1.07121 55.6294 0 54.5438 0 53.1957V21.5813C0 20.2452 1.07121 19.1595 2.38962 19.1595H52.1009C53.4193 19.1595 54.4905 20.2452 54.4905 21.5813V53.1957C54.4905 54.5438 53.4193 55.6294 52.1009 55.6294ZM2.38962 21.3069C2.23659 21.3069 2.11888 21.4262 2.11888 21.5813V53.1957C2.11888 53.3508 2.23659 53.4701 2.38962 53.4701H52.1009C52.2539 53.4701 52.3716 53.3508 52.3716 53.1957V21.5813C52.3716 21.4262 52.2539 21.3069 52.1009 21.3069H2.38962Z" fill="#00C3FF"/>
<path d="M18.5872 42.1844L22.872 29.1569L24.9085 29.8369L20.6236 42.8644L18.5872 42.1844Z" fill="#00C3FF"/>
<path d="M26.7802 41.1345L31.8185 36.0285L26.7802 30.9225L25.2617 32.4614L28.7932 36.0404L25.2617 39.6194L26.7802 41.1345Z" fill="#00C3FF"/>
<path d="M18.2106 39.6075L14.6791 36.0285L18.2106 32.4495L16.692 30.9105L11.6538 36.0285L16.692 41.1345L18.2106 39.6075Z" fill="#00C3FF"/>
<path d="M38.1516 26.2578H46.7213V28.4291H38.1516V26.2578Z" fill="#00C3FF"/>
<path d="M38.1516 30.6003H46.7213V32.7716H38.1516V30.6003Z" fill="#00C3FF"/>
<path d="M38.1516 34.9429H46.7213V37.1141H38.1516V34.9429Z" fill="#00C3FF"/>
<path d="M38.1516 39.2853H46.7213V41.4565H38.1516V39.2853Z" fill="#00C3FF"/>
<path d="M40.2939 43.6279H42.4364V45.7992H40.2939V43.6279Z" fill="#00C3FF"/>
<path d="M44.5789 43.6279H46.7213V45.7992H44.5789V43.6279Z" fill="#00C3FF"/>
<path d="M53.4309 49.7002H1.05933V51.8476H53.4309V49.7002Z" fill="#00C3FF"/>
<path d="M21.3418 54.5557H19.2229V60.9382H21.3418V54.5557Z" fill="#00C3FF"/>
<path d="M35.4912 54.5557H33.3723V60.9382H35.4912V54.5557Z" fill="#00C3FF"/>
<path d="M38.1045 62H16.7862C16.1977 62 15.7268 61.5228 15.7268 60.9264C15.7268 60.3299 16.1977 59.8527 16.7862 59.8527H38.1045C38.6931 59.8527 39.164 60.3299 39.164 60.9264C39.164 61.5228 38.6931 62 38.1045 62Z" fill="#00C3FF"/>
<path d="M79.9406 8.38672H15.0205V10.2955H79.9406V8.38672Z" fill="#00C3FF"/>
</g>
<defs>
<clipPath id="clip0_1_642">
<rect width="81" height="62" fill="white"/>
</clipPath>
</defs>
</svg>
