<svg width="74" height="82" viewBox="0 0 74 82" fill="none" xmlns="http://www.w3.org/2000/svg">
<g clip-path="url(#clip0_1_631)">
<path d="M34.7833 14.0295C34.7833 21.5117 28.848 27.559 21.5489 27.559C14.2497 27.559 8.31445 21.5117 8.31445 14.0295C8.31445 6.54729 14.2497 0.5 21.5489 0.5C28.848 0.5 34.7833 6.54729 34.7833 14.0295Z" fill="#023247" stroke="#023247"/>
<path d="M26.2848 32.2478C35.3476 32.2478 42.7625 40.1482 43.0224 49.3649H32.5182H32.162L32.0456 49.7016L25.6852 68.1043L14.0568 63.6359V51.4012C14.0568 50.8219 13.8505 50.1998 13.3827 49.7808C12.9859 49.3152 12.4365 49.087 11.84 49.087C10.5368 49.087 9.564 50.1786 9.564 51.4012V65.7935V66.1177L9.86 66.25L21.2264 71.3297L21.2275 71.3301L22.5468 71.9161C23.6439 72.6791 24.364 73.9095 24.364 75.3481C24.364 77.6218 22.5651 79.444 20.3648 79.444C19.7743 79.444 19.2047 79.3342 18.6978 79.0754L18.6773 79.0649L18.6559 79.0563L0.5 71.8044V49.3451C0.5 39.8752 7.98211 32.2478 17.2272 32.2478H26.2848Z" fill="#023247" stroke="#023247"/>
<path d="M22.7328 71.4779L21.3712 70.8732C21.8448 70.9941 22.3184 71.1755 22.7328 71.4779Z" fill="#3131CF"/>
<path d="M26.2874 81.0837L26.2875 81.0837L26.2899 81.0761L34.7536 54.1719C34.7595 54.1552 34.7739 54.1327 34.8019 54.1127C34.8323 54.0909 34.8592 54.0863 34.8688 54.0863H73.1121C73.1373 54.0863 73.1778 54.0966 73.2203 54.1539C73.2605 54.208 73.2727 54.2666 73.2698 54.3074L64.8214 81.1626C64.8213 81.1632 64.8211 81.1638 64.8209 81.1644C64.815 81.1811 64.8006 81.2037 64.7726 81.2237C64.7422 81.2454 64.7153 81.25 64.7057 81.25H26.4032C26.3757 81.25 26.3422 81.2383 26.3121 81.1959C26.2799 81.1505 26.2795 81.1081 26.2874 81.0837Z" fill="#00C3FF" stroke="#023247" stroke-width="1.5" stroke-linejoin="round"/>
<path d="M52.5693 67.6681C52.5693 69.1722 51.3784 70.3732 49.9317 70.3732C48.4849 70.3732 47.2941 69.1722 47.2941 67.6681C47.2941 66.1641 48.4849 64.9631 49.9317 64.9631C51.3784 64.9631 52.5693 66.1641 52.5693 67.6681Z" fill="white" stroke="#023247"/>
</g>
<defs>
<clipPath id="clip0_1_631">
<rect width="74" height="82" fill="white"/>
</clipPath>
</defs>
</svg>
