<svg width="71" height="55" viewBox="0 0 71 55" fill="none" xmlns="http://www.w3.org/2000/svg">
<g clip-path="url(#clip0_1_698)">
<path d="M67.8863 45.4301H3.11358C2.14728 45.4301 1.38037 44.6492 1.38037 43.6999V3.1236C1.38037 2.15895 2.16261 1.37805 3.11358 1.37805H67.8863C68.8526 1.37805 69.6195 2.15895 69.6195 3.10829V43.6846C69.6195 44.6492 68.8526 45.4301 67.8863 45.4301Z" fill="#023247"/>
<path d="M67.8864 46.8082H3.11363C1.39577 46.8082 0 45.4148 0 43.6999V3.12361C0 1.39337 1.39577 0 3.11363 0H67.8864C69.6042 0 71 1.39337 71 3.1083V43.6846C71 45.4148 69.6042 46.8082 67.8864 46.8082ZM3.11363 2.75612C2.91424 2.75612 2.76086 2.90924 2.76086 3.1083V43.6846C2.76086 43.8836 2.91424 44.0367 3.11363 44.0367H67.8864C68.0858 44.0367 68.2391 43.8836 68.2391 43.6846V3.1083C68.2391 2.90924 68.0858 2.75612 67.8864 2.75612H3.11363Z" fill="#00C3FF"/>
<path d="M69.6195 39.1982H1.38037V41.9544H69.6195V39.1982Z" fill="#00C3FF"/>
<path d="M36.8881 45.4302H34.1272V53.622H36.8881V45.4302Z" fill="#1F1F7F"/>
<path d="M36.8881 45.4302H34.1272V53.622H36.8881V45.4302Z" fill="#00C3FF"/>
<path d="M49.3887 55H21.6114C20.8445 55 20.231 54.3876 20.231 53.622C20.231 52.8564 20.8445 52.2439 21.6114 52.2439H49.3887C50.1556 52.2439 50.7691 52.8564 50.7691 53.622C50.7691 54.3876 50.1556 55 49.3887 55Z" fill="#00C3FF"/>
<path d="M45.2933 12.9997H43.8055C43.6982 12.7088 43.5908 12.4178 43.4527 12.1422L44.5111 11.0857C44.8945 10.7029 44.8945 10.0905 44.5111 9.70766L41.7502 6.95153C41.3668 6.56874 40.7532 6.56874 40.3698 6.95153L39.3115 8.00805C39.0354 7.87024 38.744 7.76306 38.4525 7.65587V6.17063C38.4525 5.63472 38.0077 5.19067 37.4709 5.19067H33.5597C33.0228 5.19067 32.578 5.63472 32.578 6.17063V7.65587C32.2866 7.76306 31.9952 7.87024 31.7191 8.00805L30.6608 6.95153C30.2773 6.56874 29.6638 6.56874 29.2804 6.95153L26.5195 9.70766C26.136 10.0905 26.136 10.7029 26.5195 11.0857L27.5778 12.1422C27.4398 12.4178 27.3324 12.7088 27.225 12.9997H25.7373C25.2004 12.9997 24.7556 13.4437 24.7556 13.9796V17.8842C24.7556 18.4201 25.2004 18.8641 25.7373 18.8641H27.225C27.3324 19.155 27.4398 19.446 27.5778 19.7216L26.5195 20.7781C26.136 21.1609 26.136 21.7734 26.5195 22.1562L29.2804 24.9123C29.6638 25.2951 30.2773 25.2951 30.6608 24.9123L31.7191 23.8558C31.9952 23.9936 32.2866 24.1008 32.578 24.2079V25.6932C32.578 26.2291 33.0228 26.6731 33.5597 26.6731H37.4709C38.0077 26.6731 38.4525 26.2291 38.4525 25.6932V24.2079C38.744 24.1008 39.0354 23.9936 39.3115 23.8558L40.3698 24.9123C40.7532 25.2951 41.3668 25.2951 41.7502 24.9123L44.5111 22.1562C44.8945 21.7734 44.8945 21.1609 44.5111 20.7781L43.4527 19.7216C43.5908 19.446 43.6982 19.155 43.8055 18.8641H45.2933C45.8301 18.8641 46.275 18.4201 46.275 17.8842V13.9643C46.2596 13.4284 45.8301 12.9997 45.2933 12.9997ZM44.3117 16.9042H43.0693C42.6245 16.9042 42.241 17.2104 42.1183 17.6392C41.965 18.267 41.7195 18.8488 41.3821 19.4C41.152 19.7828 41.2134 20.2728 41.5355 20.5943L42.4098 21.4671L41.0293 22.8452L40.1551 21.9724C39.833 21.6509 39.3575 21.5896 38.9587 21.8193C38.4065 22.1408 37.8237 22.3858 37.1948 22.5543C36.7653 22.6614 36.4586 23.0595 36.4586 23.5036V24.7438H34.4953V23.5036C34.4953 23.0595 34.1885 22.6768 33.7591 22.5543C33.1302 22.4011 32.5474 22.1562 31.9952 21.8193C31.6117 21.5896 31.1209 21.6509 30.7988 21.9724L29.9246 22.8452L28.5441 21.4671L29.4184 20.5943C29.7405 20.2728 29.8018 19.7828 29.5718 19.4C29.2497 18.8488 29.0043 18.267 28.8355 17.6392C28.7282 17.2104 28.3294 16.9042 27.8846 16.9042H26.6422V14.9443H27.8846C28.3294 14.9443 28.7128 14.6381 28.8355 14.2093C28.9889 13.5815 29.2343 12.9997 29.5718 12.4485C29.8018 12.0657 29.7405 11.5757 29.4184 11.2541L28.5441 10.3814L29.9246 9.00331L30.7988 9.87609C31.1209 10.1976 31.6117 10.2589 31.9952 10.0292C32.5474 9.70766 33.1302 9.46267 33.7591 9.29424C34.1885 9.18705 34.4953 8.78895 34.4953 8.3449V7.10465H36.4586V8.3449C36.4586 8.78895 36.7653 9.17174 37.1948 9.29424C37.8237 9.44735 38.4065 9.69234 38.9587 10.0292C39.3421 10.2589 39.833 10.1976 40.1551 9.87609L41.0293 9.00331L42.4098 10.3814L41.5355 11.2541C41.2134 11.5757 41.152 12.0657 41.3821 12.4485C41.7042 12.9997 41.9496 13.5815 42.1183 14.2093C42.2257 14.6381 42.6245 14.9443 43.0693 14.9443H44.3117V16.9042Z" fill="#00C3FF"/>
<path d="M35.5076 12.0198C33.345 12.0198 31.5964 13.7653 31.5964 15.9243C31.5964 18.0832 33.345 19.8288 35.5076 19.8288C37.6703 19.8288 39.4189 18.0832 39.4189 15.9243C39.4189 13.7653 37.655 12.0198 35.5076 12.0198ZM35.5076 17.8689C34.434 17.8689 33.5444 16.9961 33.5444 15.909C33.5444 14.8218 34.4186 13.9491 35.5076 13.9491C36.5967 13.9491 37.4709 14.8218 37.4709 15.909C37.4709 16.9961 36.5813 17.8689 35.5076 17.8689Z" fill="#00C3FF"/>
<path d="M22.777 14.9443H10.0618V16.9042H22.777V14.9443Z" fill="#00C3FF"/>
<path d="M20.8291 7.13525C20.5684 7.13525 20.323 7.24244 20.1389 7.42618L16.5191 11.0398H10.0771V12.9997H16.9333C17.194 12.9997 17.4394 12.8925 17.6235 12.7088L21.2433 9.09517H24.7557V7.13525H20.8291Z" fill="#00C3FF"/>
<path d="M21.2279 22.7534L17.6081 19.1398C17.4241 18.9561 17.1786 18.8489 16.9179 18.8489H10.0618V20.8088H16.5038L20.1236 24.4224C20.3076 24.6061 20.553 24.7133 20.8138 24.7133H24.725V22.7534H21.2279Z" fill="#00C3FF"/>
<path d="M60.9382 14.9443H48.2229V16.9042H60.9382V14.9443Z" fill="#00C3FF"/>
<path d="M54.4962 11.0398L50.8765 7.42618C50.6924 7.24244 50.447 7.13525 50.1862 7.13525H46.275V9.09517H49.7874L53.4072 12.7088C53.5913 12.8925 53.8367 12.9997 54.0975 12.9997H60.9536V11.0398H54.4962Z" fill="#00C3FF"/>
<path d="M54.0974 18.8489C53.8367 18.8489 53.5913 18.9561 53.4072 19.1398L49.7874 22.7534H46.275V24.7133H50.1862C50.447 24.7133 50.6924 24.6061 50.8764 24.4224L54.4962 20.8088H60.9382V18.8489H54.0974Z" fill="#00C3FF"/>
<path d="M26.903 30.2866L25.5226 28.9086L22.593 31.8331C22.2096 32.2159 22.2096 32.8284 22.593 33.2112L25.5226 36.1357L26.903 34.7577L24.6637 32.5222L26.903 30.2866Z" fill="#00C3FF"/>
<path d="M48.4223 31.8331L45.4927 28.9086L44.1123 30.2866L46.3517 32.5222L44.1123 34.7577L45.4927 36.1357L48.4223 33.2112C48.8058 32.8437 48.8058 32.2159 48.4223 31.8331Z" fill="#00C3FF"/>
<path d="M37.4709 33.5022H35.5077V35.4621H37.4709V33.5022Z" fill="#00C3FF"/>
<path d="M41.3821 33.5022H39.4188V35.4621H41.3821V33.5022Z" fill="#00C3FF"/>
<path d="M32.6643 29.1744L29.8091 35.0247L31.5741 35.8831L34.4292 30.0328L32.6643 29.1744Z" fill="#00C3FF"/>
</g>
<defs>
<clipPath id="clip0_1_698">
<rect width="71" height="55" fill="white"/>
</clipPath>
</defs>
</svg>
